{
  "source": "C:\\Users\\Peter\\Desktop\\stuff\\MIUN\\quantitative_research\\video_compression\\videos\\BVI-HD\\RockWater_1920x1080_30fps.mp4",
  "output": "C:\\Users\\Peter\\Desktop\\stuff\\MIUN\\quantitative_research\\video_compression\\compressed_videos\\BVI-HD\\vp9\\1\\RockWater_1920x1080_30fps_vp9.webm",
  "codec": "vp9",
  "ok": "Input #0, mov,mp4,m4a,3gp,3g2,mj2, from 'C:\\Users\\Peter\\Desktop\\stuff\\MIUN\\quantitative_research\\video_compression\\videos\\BVI-HD\\RockWater_1920x1080_30fps.mp4':\n  Metadata:\n    major_brand     : isom\n    minor_version   : 512\n    compatible_brands: isomiso2avc1mp41\n    encoder         : Lavf54.28.101\n  Duration: 00:00:05.00, start: 0.000000, bitrate: 245943 kb/s\n  Stream #0:0[0x1](und): Video: h264 (High 4:4:4 Predictive) (avc1 / 0x31637661), yuv420p(progressive), 1920x1080, 245940 kb/s, 30 fps, 30 tbr, 30 tbn (default)\n    Metadata:\n      handler_name    : VideoHandler\n      vendor_id       : [0][0][0][0]\n[out#0/webm @ 000001d3ed150b00] Codec AVOption b:a (set bitrate (in bits/s)) has not been used for any stream. The most likely reason is either wrong type (e.g. a video option with no video streams) or that it is a private option of some decoder which was not actually used for any stream.\nStream mapping:\n  Stream #0:0 -> #0:0 (h264 (native) -> vp9 (libvpx-vp9))\nPress [q] to stop, [?] for help\n[libvpx-vp9 @ 000001d3eda54600] v1.15.2-100-g40561f514\nOutput #0, webm, to 'C:\\Users\\Peter\\Desktop\\stuff\\MIUN\\quantitative_research\\video_compression\\compressed_videos\\BVI-HD\\vp9\\1\\RockWater_1920x1080_30fps_vp9.webm':\n  Metadata:\n    major_brand     : isom\n    minor_version   : 512\n    compatible_brands: isomiso2avc1mp41\n    encoder         : Lavf62.3.100\n  Stream #0:0(und): Video: vp9, yuv420p(tv, progressive), 1920x1080, q=2-31, 1000 kb/s, 30 fps, 1k tbn (default)\n    Metadata:\n      encoder         : Lavc62.11.100 libvpx-vp9\n      handler_name    : VideoHandler\n      vendor_id       : [0][0][0][0]\n    Side data:\n      cpb: bitrate max/min/avg: 0/0/0 buffer size: 1000000 vbv_delay: N/A\nframe=    0 fps=0.0 q=0.0 size=       0KiB time=N/A bitrate=N/A speed=N/A elapsed=0:00:00.51    \nframe=    2 fps=1.9 q=63.0 size=       1KiB time=00:00:00.06 bitrate=  76.1kbits/s speed=0.0631x elapsed=0:00:01.05    \nframe=    6 fps=3.8 q=63.0 size=       1KiB time=00:00:00.20 bitrate=  25.4kbits/s speed=0.127x elapsed=0:00:01.56    \nframe=   10 fps=4.8 q=63.0 size=       1KiB time=00:00:00.33 bitrate=  15.2kbits/s speed=0.16x elapsed=0:00:02.08    \nframe=   13 fps=5.0 q=63.0 size=       1KiB time=00:00:00.43 bitrate=  11.7kbits/s speed=0.167x elapsed=0:00:02.59    \nframe=   17 fps=5.5 q=63.0 size=       1KiB time=00:00:00.56 bitrate=   9.0kbits/s speed=0.182x elapsed=0:00:03.11    \nframe=   21 fps=5.8 q=49.0 size=       1KiB time=00:00:00.70 bitrate=   7.2kbits/s speed=0.192x elapsed=0:00:03.64    \nframe=   24 fps=5.8 q=63.0 size=       1KiB time=00:00:00.80 bitrate=   6.3kbits/s speed=0.192x elapsed=0:00:04.16    \nframe=   28 fps=6.0 q=63.0 size=       1KiB time=00:00:00.93 bitrate=   5.4kbits/s speed= 0.2x elapsed=0:00:04.67    \nframe=   31 fps=6.0 q=48.0 size=       1KiB time=00:00:01.03 bitrate=   4.9kbits/s speed=0.199x elapsed=0:00:05.19    \nframe=   35 fps=6.1 q=63.0 size=       1KiB time=00:00:01.16 bitrate=   4.3kbits/s speed=0.204x elapsed=0:00:05.70    \nframe=   39 fps=6.3 q=63.0 size=       1KiB time=00:00:01.30 bitrate=   3.9kbits/s speed=0.209x elapsed=0:00:06.22    \nframe=   42 fps=6.2 q=62.0 size=       1KiB time=00:00:01.40 bitrate=   3.6kbits/s speed=0.208x elapsed=0:00:06.74    \nframe=   45 fps=6.2 q=63.0 size=       1KiB time=00:00:01.50 bitrate=   3.4kbits/s speed=0.207x elapsed=0:00:07.25    \nframe=   49 fps=6.3 q=63.0 size=       1KiB time=00:00:01.63 bitrate=   3.1kbits/s speed=0.21x elapsed=0:00:07.77    \nframe=   52 fps=6.3 q=63.0 size=       1KiB time=00:00:01.73 bitrate=   2.9kbits/s speed=0.209x elapsed=0:00:08.28    \nframe=   54 fps=6.1 q=63.0 size=       1KiB time=00:00:01.80 bitrate=   2.8kbits/s speed=0.204x elapsed=0:00:08.80    \nframe=   58 fps=6.2 q=63.0 size=       1KiB time=00:00:01.93 bitrate=   2.6kbits/s speed=0.207x elapsed=0:00:09.32    \nframe=   61 fps=6.2 q=63.0 size=       1KiB time=00:00:02.03 bitrate=   2.5kbits/s speed=0.207x elapsed=0:00:09.84    \nframe=   64 fps=6.2 q=63.0 size=       1KiB time=00:00:02.13 bitrate=   2.4kbits/s speed=0.206x elapsed=0:00:10.35    \nframe=   67 fps=6.2 q=62.0 size=       1KiB time=00:00:02.23 bitrate=   2.3kbits/s speed=0.206x elapsed=0:00:10.86    \nframe=   71 fps=6.2 q=53.0 size=       1KiB time=00:00:02.36 bitrate=   2.1kbits/s speed=0.208x elapsed=0:00:11.38    \nframe=   74 fps=6.2 q=63.0 size=       1KiB time=00:00:02.46 bitrate=   2.1kbits/s speed=0.207x elapsed=0:00:11.89    \nframe=   77 fps=6.2 q=52.0 size=       1KiB time=00:00:02.56 bitrate=   2.0kbits/s speed=0.207x elapsed=0:00:12.41    \nframe=   80 fps=6.2 q=62.0 size=       1KiB time=00:00:02.66 bitrate=   1.9kbits/s speed=0.206x elapsed=0:00:12.93    \nframe=   84 fps=6.2 q=62.0 size=       1KiB time=00:00:02.80 bitrate=   1.8kbits/s speed=0.208x elapsed=0:00:13.44    \nframe=   87 fps=6.2 q=62.0 size=       1KiB time=00:00:02.90 bitrate=   1.7kbits/s speed=0.208x elapsed=0:00:13.95    \nframe=   90 fps=6.2 q=62.0 size=       1KiB time=00:00:03.00 bitrate=   1.7kbits/s speed=0.207x elapsed=0:00:14.47    \nframe=   94 fps=6.3 q=62.0 size=       1KiB time=00:00:03.13 bitrate=   1.6kbits/s speed=0.209x elapsed=0:00:14.99    \nframe=   97 fps=6.2 q=63.0 size=       1KiB time=00:00:03.23 bitrate=   1.6kbits/s speed=0.208x elapsed=0:00:15.52    \nframe=  100 fps=6.2 q=63.0 size=       1KiB time=00:00:03.33 bitrate=   1.5kbits/s speed=0.208x elapsed=0:00:16.03    \nframe=  103 fps=6.2 q=62.0 size=       1KiB time=00:00:03.43 bitrate=   1.5kbits/s speed=0.207x elapsed=0:00:16.55    \nframe=  106 fps=6.2 q=63.0 size=       1KiB time=00:00:03.53 bitrate=   1.4kbits/s speed=0.207x elapsed=0:00:17.07    \nframe=  110 fps=6.3 q=63.0 size=       1KiB time=00:00:03.66 bitrate=   1.4kbits/s speed=0.208x elapsed=0:00:17.58    \nframe=  113 fps=6.2 q=53.0 size=       1KiB time=00:00:03.76 bitrate=   1.3kbits/s speed=0.208x elapsed=0:00:18.10    \nframe=  116 fps=6.2 q=63.0 size=       1KiB time=00:00:03.86 bitrate=   1.3kbits/s speed=0.208x elapsed=0:00:18.61    \nframe=  119 fps=6.2 q=49.0 size=       1KiB time=00:00:03.96 bitrate=   1.3kbits/s speed=0.207x elapsed=0:00:19.13    \nframe=  123 fps=6.3 q=63.0 size=       1KiB time=00:00:04.10 bitrate=   1.2kbits/s speed=0.209x elapsed=0:00:19.64    \nframe=  126 fps=6.2 q=63.0 size=       1KiB time=00:00:04.20 bitrate=   1.2kbits/s speed=0.208x elapsed=0:00:20.16    \nframe=  126 fps=6.1 q=63.0 size=       1KiB time=00:00:04.20 bitrate=   1.2kbits/s speed=0.203x elapsed=0:00:20.67    \nframe=  126 fps=5.9 q=63.0 size=       1KiB time=00:00:04.20 bitrate=   1.2kbits/s speed=0.198x elapsed=0:00:21.19    \nframe=  126 fps=5.8 q=63.0 size=       1KiB time=00:00:04.20 bitrate=   1.2kbits/s speed=0.193x elapsed=0:00:21.70    \nframe=  126 fps=5.7 q=63.0 size=       1KiB time=00:00:04.20 bitrate=   1.2kbits/s speed=0.189x elapsed=0:00:22.23    \nframe=  126 fps=5.5 q=63.0 size=       1KiB time=00:00:04.20 bitrate=   1.2kbits/s speed=0.185x elapsed=0:00:22.74    \nframe=  126 fps=5.4 q=63.0 size=       1KiB time=00:00:04.20 bitrate=   1.2kbits/s speed=0.181x elapsed=0:00:23.25    \n[out#0/webm @ 000001d3ed150b00] video:690KiB audio:0KiB subtitle:0KiB other streams:0KiB global headers:0KiB muxing overhead: 0.247887%\nframe=  150 fps=6.3 q=63.0 Lsize=     692KiB time=00:00:05.00 bitrate=1133.6kbits/s speed=0.211x elapsed=0:00:23.66    \n",
  "seconds": 23.893481969833374,
  "probe_out": {}
}